<mxfile host="app.diagrams.net" agent="Mozilla/5.0 (Windows NT 10.0; Win64; x64) AppleWebKit/537.36 (KHTML, like Gecko) Chrome/135.0.0.0 Safari/537.36" version="26.2.14">
  <diagram name="Page-1" id="5LJKOJJYJkIzFEjcvx2G">
    <mxGraphModel dx="970" dy="1630" grid="1" gridSize="10" guides="1" tooltips="1" connect="1" arrows="1" fold="1" page="1" pageScale="1" pageWidth="850" pageHeight="1100" math="0" shadow="0">
      <root>
        <mxCell id="0" />
        <mxCell id="1" parent="0" />
        <mxCell id="scA_LDVuSowCx7-Pzy7q-1" value="" style="rounded=0;whiteSpace=wrap;html=1;fillColor=#ffe6cc;strokeColor=#d79b00;" parent="1" vertex="1">
          <mxGeometry x="185" y="80" width="250" height="680" as="geometry" />
        </mxCell>
        <mxCell id="N0RZ98qjH66wWmyS8YTS-20" style="edgeStyle=orthogonalEdgeStyle;rounded=0;orthogonalLoop=1;jettySize=auto;html=1;exitX=0.5;exitY=1;exitDx=0;exitDy=0;entryX=0.5;entryY=0;entryDx=0;entryDy=0;" parent="1" source="scA_LDVuSowCx7-Pzy7q-5" target="scA_LDVuSowCx7-Pzy7q-8" edge="1">
          <mxGeometry relative="1" as="geometry" />
        </mxCell>
        <mxCell id="scA_LDVuSowCx7-Pzy7q-5" value="input(300X300X3)" style="rounded=0;whiteSpace=wrap;html=1;fillColor=#d5e8d4;strokeColor=#82b366;gradientColor=#97d077;" parent="1" vertex="1">
          <mxGeometry x="240" y="100" width="150" height="35" as="geometry" />
        </mxCell>
        <mxCell id="N0RZ98qjH66wWmyS8YTS-21" value="" style="edgeStyle=orthogonalEdgeStyle;rounded=0;orthogonalLoop=1;jettySize=auto;html=1;" parent="1" source="scA_LDVuSowCx7-Pzy7q-8" target="scA_LDVuSowCx7-Pzy7q-10" edge="1">
          <mxGeometry relative="1" as="geometry" />
        </mxCell>
        <mxCell id="scA_LDVuSowCx7-Pzy7q-8" value="conv2d (16 @ 3X3)" style="rounded=0;whiteSpace=wrap;html=1;fillColor=#d5e8d4;strokeColor=#82b366;gradientColor=#97d077;" parent="1" vertex="1">
          <mxGeometry x="240" y="160" width="150" height="35" as="geometry" />
        </mxCell>
        <mxCell id="scA_LDVuSowCx7-Pzy7q-9" value="max pool (2X2)" style="rounded=0;whiteSpace=wrap;html=1;fillColor=#d5e8d4;strokeColor=#82b366;gradientColor=#97d077;" parent="1" vertex="1">
          <mxGeometry x="255" y="220" width="120" height="35" as="geometry" />
        </mxCell>
        <mxCell id="N0RZ98qjH66wWmyS8YTS-22" value="" style="edgeStyle=orthogonalEdgeStyle;rounded=0;orthogonalLoop=1;jettySize=auto;html=1;" parent="1" source="scA_LDVuSowCx7-Pzy7q-10" target="scA_LDVuSowCx7-Pzy7q-12" edge="1">
          <mxGeometry relative="1" as="geometry" />
        </mxCell>
        <mxCell id="scA_LDVuSowCx7-Pzy7q-10" value="conv2d(32 @ 3X3)" style="rounded=0;whiteSpace=wrap;html=1;fillColor=#d5e8d4;strokeColor=#82b366;gradientColor=#97d077;" parent="1" vertex="1">
          <mxGeometry x="240" y="280" width="150" height="35" as="geometry" />
        </mxCell>
        <mxCell id="scA_LDVuSowCx7-Pzy7q-11" value="maxpool (2X2)" style="rounded=0;whiteSpace=wrap;html=1;fillColor=#d5e8d4;strokeColor=#82b366;gradientColor=#97d077;" parent="1" vertex="1">
          <mxGeometry x="255" y="340" width="120" height="35" as="geometry" />
        </mxCell>
        <mxCell id="N0RZ98qjH66wWmyS8YTS-23" value="" style="edgeStyle=orthogonalEdgeStyle;rounded=0;orthogonalLoop=1;jettySize=auto;html=1;" parent="1" source="scA_LDVuSowCx7-Pzy7q-12" target="scA_LDVuSowCx7-Pzy7q-14" edge="1">
          <mxGeometry relative="1" as="geometry" />
        </mxCell>
        <mxCell id="scA_LDVuSowCx7-Pzy7q-12" value="conv2d (64 @ 3X3)" style="rounded=0;whiteSpace=wrap;html=1;fillColor=#d5e8d4;strokeColor=#82b366;gradientColor=#97d077;" parent="1" vertex="1">
          <mxGeometry x="240" y="400" width="150" height="35" as="geometry" />
        </mxCell>
        <mxCell id="scA_LDVuSowCx7-Pzy7q-13" value="maxpool (2X2)" style="rounded=0;whiteSpace=wrap;html=1;fillColor=#d5e8d4;strokeColor=#82b366;gradientColor=#97d077;" parent="1" vertex="1">
          <mxGeometry x="250" y="460" width="120" height="35" as="geometry" />
        </mxCell>
        <mxCell id="N0RZ98qjH66wWmyS8YTS-24" value="" style="edgeStyle=orthogonalEdgeStyle;rounded=0;orthogonalLoop=1;jettySize=auto;html=1;" parent="1" source="scA_LDVuSowCx7-Pzy7q-14" target="scA_LDVuSowCx7-Pzy7q-16" edge="1">
          <mxGeometry relative="1" as="geometry" />
        </mxCell>
        <mxCell id="scA_LDVuSowCx7-Pzy7q-14" value="conv2d (128 @ 3X3)" style="rounded=0;whiteSpace=wrap;html=1;fillColor=#d5e8d4;strokeColor=#82b366;gradientColor=#97d077;" parent="1" vertex="1">
          <mxGeometry x="240" y="520" width="150" height="35" as="geometry" />
        </mxCell>
        <mxCell id="scA_LDVuSowCx7-Pzy7q-15" value="maxpool (2X2)&amp;nbsp;" style="rounded=0;whiteSpace=wrap;html=1;fillColor=#d5e8d4;strokeColor=#82b366;gradientColor=#97d077;" parent="1" vertex="1">
          <mxGeometry x="250" y="580" width="120" height="35" as="geometry" />
        </mxCell>
        <mxCell id="scA_LDVuSowCx7-Pzy7q-17" value="maxpool (2X2)&amp;nbsp;" style="rounded=0;whiteSpace=wrap;html=1;fillColor=#d5e8d4;strokeColor=#82b366;gradientColor=#97d077;" parent="1" vertex="1">
          <mxGeometry x="250" y="700" width="120" height="35" as="geometry" />
        </mxCell>
        <mxCell id="N0RZ98qjH66wWmyS8YTS-26" value="" style="edgeStyle=orthogonalEdgeStyle;rounded=0;orthogonalLoop=1;jettySize=auto;html=1;" parent="1" source="gRfCRlDx8FtrszLpuUly-6" target="gRfCRlDx8FtrszLpuUly-12" edge="1">
          <mxGeometry relative="1" as="geometry" />
        </mxCell>
        <mxCell id="gRfCRlDx8FtrszLpuUly-6" value="flatten" style="rounded=0;whiteSpace=wrap;html=1;fillColor=#d5e8d4;strokeColor=#82b366;" parent="1" vertex="1">
          <mxGeometry x="245" y="790" width="140" height="40" as="geometry" />
        </mxCell>
        <mxCell id="N0RZ98qjH66wWmyS8YTS-43" value="" style="edgeStyle=orthogonalEdgeStyle;rounded=0;orthogonalLoop=1;jettySize=auto;html=1;" parent="1" source="gRfCRlDx8FtrszLpuUly-12" target="gRfCRlDx8FtrszLpuUly-13" edge="1">
          <mxGeometry relative="1" as="geometry" />
        </mxCell>
        <mxCell id="gRfCRlDx8FtrszLpuUly-12" value="DENSE ( 256 )" style="rounded=1;whiteSpace=wrap;html=1;fillColor=#d5e8d4;strokeColor=#82b366;" parent="1" vertex="1">
          <mxGeometry x="175" y="880" width="280" height="40" as="geometry" />
        </mxCell>
        <mxCell id="gRfCRlDx8FtrszLpuUly-13" value="DENSE (512)" style="rounded=1;whiteSpace=wrap;html=1;fillColor=#d5e8d4;strokeColor=#82b366;" parent="1" vertex="1">
          <mxGeometry x="125" y="970" width="380" height="40" as="geometry" />
        </mxCell>
        <mxCell id="gRfCRlDx8FtrszLpuUly-19" value="output&amp;nbsp;" style="rounded=0;whiteSpace=wrap;html=1;fillColor=#f8cecc;strokeColor=#b85450;" parent="1" vertex="1">
          <mxGeometry x="490" y="1100" width="140" height="40" as="geometry" />
        </mxCell>
        <mxCell id="N0RZ98qjH66wWmyS8YTS-25" value="" style="edgeStyle=orthogonalEdgeStyle;rounded=0;orthogonalLoop=1;jettySize=auto;html=1;" parent="1" source="scA_LDVuSowCx7-Pzy7q-16" target="gRfCRlDx8FtrszLpuUly-6" edge="1">
          <mxGeometry relative="1" as="geometry" />
        </mxCell>
        <mxCell id="scA_LDVuSowCx7-Pzy7q-16" value="conv2d (128 @ 3X3)" style="rounded=0;whiteSpace=wrap;html=1;fillColor=#d5e8d4;strokeColor=#82b366;gradientColor=#97d077;" parent="1" vertex="1">
          <mxGeometry x="240" y="640" width="150" height="35" as="geometry" />
        </mxCell>
        <mxCell id="N0RZ98qjH66wWmyS8YTS-34" value="" style="edgeStyle=orthogonalEdgeStyle;rounded=0;orthogonalLoop=1;jettySize=auto;html=1;entryX=0.5;entryY=0;entryDx=0;entryDy=0;" parent="1" source="N0RZ98qjH66wWmyS8YTS-28" target="bcCbQazt255gqttre1zn-2" edge="1">
          <mxGeometry relative="1" as="geometry">
            <mxPoint x="730" y="315" as="targetPoint" />
          </mxGeometry>
        </mxCell>
        <mxCell id="N0RZ98qjH66wWmyS8YTS-28" value="Data Perturbations" style="shape=cube;whiteSpace=wrap;html=1;boundedLbl=1;backgroundOutline=1;darkOpacity=0.05;darkOpacity2=0.1;fillColor=#f8cecc;strokeColor=#b85450;" parent="1" vertex="1">
          <mxGeometry x="670" y="120" width="120" height="80" as="geometry" />
        </mxCell>
        <mxCell id="N0RZ98qjH66wWmyS8YTS-30" style="edgeStyle=orthogonalEdgeStyle;rounded=0;orthogonalLoop=1;jettySize=auto;html=1;exitX=0;exitY=0.5;exitDx=0;exitDy=0;exitPerimeter=0;entryX=0.535;entryY=0.002;entryDx=0;entryDy=0;entryPerimeter=0;" parent="1" target="scA_LDVuSowCx7-Pzy7q-1" edge="1">
          <mxGeometry relative="1" as="geometry">
            <mxPoint x="470" as="sourcePoint" />
          </mxGeometry>
        </mxCell>
        <mxCell id="N0RZ98qjH66wWmyS8YTS-36" value="" style="edgeStyle=orthogonalEdgeStyle;rounded=0;orthogonalLoop=1;jettySize=auto;html=1;" parent="1" edge="1">
          <mxGeometry relative="1" as="geometry">
            <mxPoint x="730" y="415" as="sourcePoint" />
            <mxPoint x="730" y="515" as="targetPoint" />
          </mxGeometry>
        </mxCell>
        <mxCell id="N0RZ98qjH66wWmyS8YTS-37" style="edgeStyle=orthogonalEdgeStyle;rounded=0;orthogonalLoop=1;jettySize=auto;html=1;exitX=1;exitY=0.5;exitDx=0;exitDy=0;exitPerimeter=0;entryX=0.331;entryY=-0.013;entryDx=0;entryDy=0;entryPerimeter=0;" parent="1" target="N0RZ98qjH66wWmyS8YTS-28" edge="1">
          <mxGeometry relative="1" as="geometry">
            <mxPoint x="530" as="sourcePoint" />
          </mxGeometry>
        </mxCell>
        <mxCell id="N0RZ98qjH66wWmyS8YTS-41" value="" style="endArrow=none;html=1;rounded=0;" parent="1" edge="1">
          <mxGeometry width="50" height="50" relative="1" as="geometry">
            <mxPoint x="505" y="1000" as="sourcePoint" />
            <mxPoint x="560" y="360" as="targetPoint" />
            <Array as="points">
              <mxPoint x="560" y="1000" />
            </Array>
          </mxGeometry>
        </mxCell>
        <mxCell id="N0RZ98qjH66wWmyS8YTS-42" value="" style="endArrow=classic;html=1;rounded=0;entryX=0;entryY=0.25;entryDx=0;entryDy=0;" parent="1" target="bcCbQazt255gqttre1zn-2" edge="1">
          <mxGeometry width="50" height="50" relative="1" as="geometry">
            <mxPoint x="560" y="360" as="sourcePoint" />
            <mxPoint x="610" y="110" as="targetPoint" />
            <Array as="points" />
          </mxGeometry>
        </mxCell>
        <mxCell id="N0RZ98qjH66wWmyS8YTS-44" value="" style="endArrow=classic;html=1;rounded=0;exitX=0.5;exitY=1;exitDx=0;exitDy=0;entryX=0.25;entryY=0;entryDx=0;entryDy=0;" parent="1" source="gRfCRlDx8FtrszLpuUly-13" target="gRfCRlDx8FtrszLpuUly-19" edge="1">
          <mxGeometry width="50" height="50" relative="1" as="geometry">
            <mxPoint x="375" y="1100" as="sourcePoint" />
            <mxPoint x="425" y="1050" as="targetPoint" />
            <Array as="points">
              <mxPoint x="320" y="1040" />
            </Array>
          </mxGeometry>
        </mxCell>
        <mxCell id="N0RZ98qjH66wWmyS8YTS-48" value="" style="endArrow=none;html=1;rounded=0;entryX=0.5;entryY=1;entryDx=0;entryDy=0;" parent="1" target="bcCbQazt255gqttre1zn-3" edge="1">
          <mxGeometry width="50" height="50" relative="1" as="geometry">
            <mxPoint x="740" y="1000" as="sourcePoint" />
            <mxPoint x="716.56" y="612.9000000000001" as="targetPoint" />
            <Array as="points">
              <mxPoint x="740" y="660" />
            </Array>
          </mxGeometry>
        </mxCell>
        <mxCell id="N0RZ98qjH66wWmyS8YTS-49" value="" style="endArrow=classic;html=1;rounded=0;entryX=0.5;entryY=0;entryDx=0;entryDy=0;" parent="1" target="gRfCRlDx8FtrszLpuUly-19" edge="1">
          <mxGeometry width="50" height="50" relative="1" as="geometry">
            <mxPoint x="740" y="1000" as="sourcePoint" />
            <mxPoint x="560" y="1050" as="targetPoint" />
            <Array as="points" />
          </mxGeometry>
        </mxCell>
        <mxCell id="bcCbQazt255gqttre1zn-1" value="input data" style="rounded=0;whiteSpace=wrap;html=1;fillColor=#dae8fc;strokeColor=#6c8ebf;" vertex="1" parent="1">
          <mxGeometry x="440" y="-30" width="120" height="60" as="geometry" />
        </mxCell>
        <mxCell id="bcCbQazt255gqttre1zn-2" value="feature Engineering" style="rounded=1;whiteSpace=wrap;html=1;fillColor=#b1ddf0;strokeColor=#10739e;" vertex="1" parent="1">
          <mxGeometry x="670" y="340" width="120" height="70" as="geometry" />
        </mxCell>
        <mxCell id="bcCbQazt255gqttre1zn-3" value="Lime Visulations" style="rounded=1;whiteSpace=wrap;html=1;fillColor=#dae8fc;gradientColor=#7ea6e0;strokeColor=#6c8ebf;" vertex="1" parent="1">
          <mxGeometry x="670" y="520" width="140" height="80" as="geometry" />
        </mxCell>
      </root>
    </mxGraphModel>
  </diagram>
</mxfile>
